<svg xmlns="http://www.w3.org/2000/svg" version="1.1" xmlns:xlink="http://www.w3.org/1999/xlink" xmlns:svgjs="http://svgjs.dev/svgjs" viewBox="0 0 800 800" opacity="1"><defs><symbol id="bbburst-shape-1" viewBox="0 0 194 167"><path d="m97 0 96.129 166.5H.871L97 0Z"></path></symbol><symbol id="bbburst-shape-2" viewBox="0 0 126 115"><path d="m63 0 62.77 43.877-23.976 70.996H24.206L.23 43.877 63 0Z"></path></symbol><symbol id="bbburst-shape-3" viewBox="0 0 131 127"><path d="m66 0 66 63.5L66 127 0 63.5 66 0Z"></path></symbol><symbol id="bbburst-shape-4" viewBox="0 0 149 143"><path d="M71.647 2.781c.898-2.764 4.808-2.764 5.706 0l15.445 47.534a3 3 0 0 0 2.853 2.073h49.98c2.906 0 4.115 3.719 1.764 5.427L106.96 87.193a2.999 2.999 0 0 0-1.09 3.354l15.445 47.534c.898 2.764-2.266 5.062-4.617 3.354l-40.435-29.378a3 3 0 0 0-3.526 0l-40.435 29.378c-2.351 1.708-5.515-.59-4.617-3.354L43.13 90.547a3 3 0 0 0-1.09-3.354L1.605 57.815c-2.35-1.708-1.142-5.427 1.764-5.427h49.98a3 3 0 0 0 2.853-2.073L71.647 2.781Z"></path></symbol><symbol id="bbburst-shape-5" viewBox="0 0 145 145"><circle cx="72.5" cy="72.5" r="72.5"></circle></symbol><symbol id="bbburst-shape-6" viewBox="0 0 133 116"><path d="M59.7487 10.2513c-13.6683-13.66839-35.8291-13.66839-49.4974 0-13.66839 13.6683-13.66839 35.8291 0 49.4974l49.4974-49.4974ZM66.5 66.5 41.7513 91.2487 66.5 115.997l24.7487-24.7483L66.5 66.5Zm56.249-6.7513c13.668-13.6683 13.668-35.8291 0-49.4974-13.669-13.66839-35.8294-13.66839-49.4977 0l49.4977 49.4974Zm-112.4977 0 31.5 31.5 49.4974-49.4974-31.5-31.5-49.4974 49.4974Zm80.9974 31.5 31.5003-31.5-49.4977-49.4974-31.5 31.5 49.4974 49.4974Z"></path></symbol><symbol id="bbburst-shape-7" viewBox="0 0 139 124"><path fill-rule="evenodd" clip-rule="evenodd" d="M70.1641 15.0917C54.6093.764854 37.8293-2.10782 24.4032 2.82615 10.3804 7.97941.763366 21.4591 1.00047 37.0608c.1068 7.0273 2.86132 13.7317 7.0039 20.2001C12.1442 63.7249 17.853 70.2322 24.25 76.9024c3.8209 3.9842 7.8871 8.0312 12.0767 12.201h.0001c10.0335 9.9862 20.7748 20.6766 30.5497 32.8956 1.38 1.725 3.8972 2.005 5.6223.624.6706-.536 1.1228-1.244 1.3439-2.011 9.5768-11.748 20.0328-22.0735 29.8163-31.7351 4.19-4.1373 8.256-8.1528 12.078-12.1062 6.396-6.6176 12.106-13.0752 16.247-19.4911 4.144-6.4196 6.905-13.0811 7.012-20.0691.237-15.5124-9.399-28.8902-23.411-33.99923-13.32-4.85681-29.9542-2.08621-45.4209 11.88043Zm-3.7351 7.4919C52.1278 8.44857 37.6826 6.46918 27.1626 10.3352 16.2859 14.3323 8.8148 24.7824 8.99955 36.9392c.07575 4.9844 2.03755 10.2234 5.74165 16.0072 3.707 5.7881 8.9752 11.8418 15.2827 18.4187 3.5798 3.7328 7.4978 7.6329 11.6 11.7163 9.0476 9.0063 18.9911 18.9046 28.1786 29.8666 9.2999-11.068 19.4036-21.0473 28.5839-30.1144l.0007-.0006c4.1019-4.0508 8.0189-7.9196 11.5979-11.6222 6.307-6.5252 11.573-12.5298 15.278-18.2697 3.703-5.7362 5.658-10.924 5.734-15.8531.184-12.0276-7.267-22.3914-18.153-26.3608-10.71-3.90518-25.4722-1.80041-40.0023 12.867-1.5547 1.5694-4.0874 1.5813-5.6568.0265-.3146-.3116-.5666-.6625-.7559-1.0371Z"></path></symbol><symbol id="bbburst-shape-8" viewBox="0 0 87 168"><path d="m12 12 31.2546 18.0749c16.4102 9.4902 20.014 31.6325 7.4603 45.8369L36.3296 92.1884c-12.5684 14.2206-8.9394 36.3916 7.5068 45.8636L75 156" stroke-width="14" stroke-linecap="round" stroke-linejoin="round"></path></symbol><symbol id="bbburst-shape-9" viewBox="0 0 182 172"><path d="M13.5809 69.845 91 13.5967l77.419 56.2483-29.571 91.012H43.1524L13.5809 69.845Z" stroke-width="22"></path></symbol><symbol id="bbburst-shape-10" viewBox="0 0 145 145"><circle cx="72.5" cy="72.5" r="61.5" fill="none" stroke-width="22"></circle></symbol><symbol id="bbburst-shape-11" viewBox="0 0 194 167"><path d="M10.398 161 97 11l86.603 150H10.397Z" stroke-width="11"></path></symbol><symbol id="bbburst-shape-12" viewBox="0 0 170 151"><path d="M69.3728 54.2122 85 10.0031l15.627 44.2091c1.413 3.9958 5.19 6.6672 9.428 6.6673h49.312l-39.149 26.1447c-3.803 2.5401-5.399 7.3367-3.875 11.6488l15.179 42.94-40.9683-27.36c-3.3621-2.245-7.7453-2.245-11.1074 0l-40.9682 27.36 15.1785-42.94c1.5243-4.3121-.0712-9.1087-3.8746-11.6488L10.6333 60.8795h49.3112c4.2381-.0001 8.0159-2.6715 9.4283-6.6673Z" stroke-width="12"></path></symbol><symbol id="bbburst-shape-13" viewBox="0 0 159 159"><path stroke-width="22" d="M11 11h137v137H11z"></path></symbol><symbol id="bbburst-shape-14" viewBox="0 0 185 109"><path d="M168 16.5C168 58.1975 134.197 92 92.5 92 50.8025 92 17 58.1975 17 16.5" stroke-width="33" stroke-linecap="round"></path></symbol></defs><use xlink:href="#bbburst-shape-7" width="6.671611044444437" opacity="0.9060864302232313" transform="matrix(0.9997882635686355,0.020577366945572325,-0.020577366945572325,0.9997882635686355,414.1969282342707,41.23285598389299)" fill="#ff5c58"></use><use xlink:href="#bbburst-shape-2" width="29.982827491681498" opacity="0.25211978502134225" transform="matrix(0.9499002912459584,-0.31255309419495986,0.31255309419495986,0.9499002912459584,93.92850495169242,-267.55478721097296)" fill="#00a19d"></use><use xlink:href="#bbburst-shape-7" width="28.74439380811366" opacity="0.1809549360431394" transform="matrix(0.7185075459710174,-0.6955191632030755,0.6955191632030755,0.7185075459710174,243.0383062086068,466.9129581800151)" fill="#ffa6d5"></use><use xlink:href="#bbburst-shape-12" width="24.08841373744814" opacity="0.5657944691674714" transform="matrix(0.8955907190084342,0.44487893187467953,-0.44487893187467953,0.8955907190084342,496.3847900633282,-145.74800324297303)" fill="none" stroke="#2c2891"></use><use xlink:href="#bbburst-shape-11" width="23.08331048762813" opacity="0.4466003377307556" transform="matrix(0.9952151726094516,-0.09770752380415461,0.09770752380415461,0.9952151726094516,550.006993502135,-144.8122001231792)" fill="none" stroke="#00a19d"></use><use xlink:href="#bbburst-shape-8" width="21.360541418167255" opacity="0.5877483223634763" transform="matrix(0.99045211813445,0.13785717856891397,-0.13785717856891397,0.99045211813445,625.7445894700147,42.20878149558513)" fill="none" stroke="#ff5c58"></use><use xlink:href="#bbburst-shape-9" width="18.121762302294428" opacity="0.6273522366471767" transform="matrix(0.8790965079770438,0.4766438184457735,-0.4766438184457735,0.8790965079770438,629.7832644581172,204.8958822773917)" fill="none" stroke="#ffa6d5"></use><use xlink:href="#bbburst-shape-6" width="32.00022919627607" opacity="-0.09864014399483789" transform="matrix(0.9720222365093325,0.2348888497383291,-0.2348888497383291,0.9720222365093325,822.5279982864489,362.3945436502191)" fill="#2c2891"></use><use xlink:href="#bbburst-shape-13" width="9.790779219383534" opacity="0.8716974900836596" transform="matrix(0.8609896576468458,-0.5086224625644914,0.5086224625644914,0.8609896576468458,180.12130988081142,1.6648060777510523)" fill="none" stroke="#2c2891"></use><use xlink:href="#bbburst-shape-5" width="27.036391141376125" opacity="0.21256553697779546" transform="matrix(0.7970188669880927,0.6039544069422932,-0.6039544069422932,0.7970188669880927,338.9619474374888,-127.93687375719892)" fill="#ff5c58"></use><use xlink:href="#bbburst-shape-3" width="32.69193363667695" opacity="0.13645265042894894" transform="matrix(0.9675895370928114,0.25252819190838666,-0.25252819190838666,0.9675895370928114,848.715474054923,145.81668450795883)" fill="#00a19d"></use><use xlink:href="#bbburst-shape-2" width="13.468756843985485" opacity="0.7545318657712311" transform="matrix(0.9845336666501893,-0.17519548861866868,0.17519548861866868,0.9845336666501893,309.00611554401377,-102.15981476494767)" fill="#2c2891"></use><use xlink:href="#bbburst-shape-2" width="34.85110890789658" opacity="0.3393521190670715" transform="matrix(0.9802924734451345,-0.197551680597307,0.197551680597307,0.9802924734451345,233.85442863466363,300.2644433096079)" fill="#00a19d"></use><use xlink:href="#bbburst-shape-13" width="31.515828278278104" opacity="0.47422017113332793" transform="matrix(0.9968436037179662,0.07939036293265275,-0.07939036293265275,0.9968436037179662,395.82446021082666,235.74656630388978)" fill="none" stroke="#00a19d"></use><use xlink:href="#bbburst-shape-7" width="29.299204550899592" opacity="0.0578081424397211" transform="matrix(0.8080293154389263,0.5891422794124525,-0.5891422794124525,0.8080293154389263,845.5383304455268,429.43276040463377)" fill="#ffa6d5"></use><use xlink:href="#bbburst-shape-13" width="6.2701814347146145" opacity="0.9256428747095015" transform="matrix(0.9798698580795336,0.19963732423370803,-0.19963732423370803,0.9798698580795336,444.2166259186454,15.110800424490776)" fill="none" stroke="#2c2891"></use><use xlink:href="#bbburst-shape-3" width="18.512910514741378" opacity="0.6666430581934022" transform="matrix(0.9994708071128098,0.03252853715230163,-0.03252853715230163,0.9994708071128098,386.5292287664149,-149.11762796431591)" fill="#00a19d"></use><use xlink:href="#bbburst-shape-2" width="48.01775272854521" opacity="-0.10545147641701624" transform="matrix(0.7190217801283205,-0.6949875392416047,0.6949875392416047,0.7190217801283205,-251.64909744560322,476.12916164402253)" fill="#ffbd9b"></use><use xlink:href="#bbburst-shape-9" width="21.923440475449837" opacity="0.526596144140941" transform="matrix(0.9949419137223303,0.10045192043234906,-0.10045192043234906,0.9949419137223303,641.4320737416309,-18.666901701525546)" fill="none" stroke="#00a19d"></use><use xlink:href="#bbburst-shape-13" width="11.589904236199907" opacity="0.8284637508685035" transform="matrix(0.9315871431303036,-0.3635180803678399,0.3635180803678399,0.9315871431303036,256.75977521849893,-47.347958451209195)" fill="none" stroke="#ffa6d5"></use><use xlink:href="#bbburst-shape-7" width="24.407731225720276" opacity="0.5455774692140786" transform="matrix(0.9644976616890265,-0.2640913868273636,0.2640913868273636,0.9644976616890265,86.89652573284476,-42.16791971681107)" fill="#00a19d"></use><use xlink:href="#bbburst-shape-13" width="42.29034706430517" opacity="0.11666636051167534" transform="matrix(0.7688602579444789,0.6394168466294499,-0.6394168466294499,0.7688602579444789,908.899484071409,371.2282773482469)" fill="none" stroke="#ff5c58"></use><use xlink:href="#bbburst-shape-6" width="17.107361720116476" opacity="0.6849032267428202" transform="matrix(0.99888762143636,-0.04715421233793696,0.04715421233793696,0.99888762143636,494.3305567129019,73.5509851799165)" fill="#ffa6d5"></use><use xlink:href="#bbburst-shape-7" width="12.574286614919647" opacity="0.8534920358942596" transform="matrix(0.7524972891863981,-0.6585953459956443,0.6585953459956443,0.7524972891863981,194.39722125125525,82.49386541847917)" fill="#2c2891"></use><use xlink:href="#bbburst-shape-4" width="29.06198689612054" opacity="0.17409735491900913" transform="matrix(0.9939566117617348,0.1097736486372395,-0.1097736486372395,0.9939566117617348,479.50485467292066,369.1203224544887)" fill="#2c2891"></use><use xlink:href="#bbburst-shape-6" width="25.967678278373167" opacity="0.4684728012427797" transform="matrix(0.9978540025087113,-0.06547816183541635,0.06547816183541635,0.9978540025087113,517.1283867001536,182.784704936928)" fill="#ff5c58"></use><use xlink:href="#bbburst-shape-8" width="14.029751924612196" opacity="0.8134866238352465" transform="matrix(0.8607024903912609,0.5091082625869291,-0.5091082625869291,0.8607024903912609,681.4965744446845,49.55649823651066)" fill="none" stroke="#ffa6d5"></use><use xlink:href="#bbburst-shape-13" width="13.466504514323493" opacity="0.7240814507469258" transform="matrix(0.9395712810100906,-0.34235333779745364,0.34235333779745364,0.9395712810100906,133.24344319628747,13.552244207803994)" fill="none" stroke="#ffa6d5"></use><use xlink:href="#bbburst-shape-7" width="29.888888690311482" opacity="0.4583161305650394" transform="matrix(0.9991433359584981,-0.0413835016609722,0.0413835016609722,0.9991433359584981,276.0166527795244,226.52557598319015)" fill="#2c2891"></use><use xlink:href="#bbburst-shape-9" width="9.294698689448646" opacity="0.882223484396891" transform="matrix(0.9969216389588158,0.07840437344733134,-0.07840437344733134,0.9969216389588158,437.03718911594154,-51.1837196845691)" fill="none" stroke="#ffa6d5"></use><use xlink:href="#bbburst-shape-5" width="9.886354235945333" opacity="0.8440208600897819" transform="matrix(0.9383415678712475,0.34570956307994877,-0.34570956307994877,0.9383415678712475,483.2273447656208,71.78824872880983)" fill="#ffa6d5"></use><use xlink:href="#bbburst-shape-2" width="33.8865785546906" opacity="0.33589919861217443" transform="matrix(0.9842229592585794,-0.1769326608297203,0.1769326608297203,0.9842229592585794,102.58193519910924,-203.32519342183897)" fill="#00a19d"></use><use xlink:href="#bbburst-shape-3" width="9.313363742383748" opacity="0.8200419834219187" transform="matrix(0.9469596082377323,-0.3213526106417071,0.3213526106417071,0.9469596082377323,280.0332640182625,102.65198594115833)" fill="#00a19d"></use><use xlink:href="#bbburst-shape-14" width="19.870414027695567" opacity="0.6972545873354413" transform="matrix(0.9593168455562118,-0.28233170178369843,0.28233170178369843,0.9593168455562118,221.7992354267332,-105.20454802680564)" fill="none" stroke="#ff5c58"></use><use xlink:href="#bbburst-shape-11" width="19.52117725273208" opacity="0.559534366200656" transform="matrix(0.8939545981099947,-0.44815753538013603,0.44815753538013603,0.8939545981099947,377.76079974137315,155.0884581574971)" fill="none" stroke="#00a19d"></use><use xlink:href="#bbburst-shape-6" width="25.151306773591728" opacity="0.407355140075886" transform="matrix(0.854592933737442,-0.5192984860424994,0.5192984860424994,0.854592933737442,21.605348078139173,278.11003094345654)" fill="#ffbd9b"></use><use xlink:href="#bbburst-shape-10" width="24.432646992855286" opacity="0.15298310198599252" transform="matrix(0.9898495280002283,0.14211935799786465,-0.14211935799786465,0.9898495280002283,330.37921628561975,-361.2680595881634)" fill="none" stroke="#2c2891"></use><use xlink:href="#bbburst-shape-11" width="7.997947692430007" opacity="0.8842753196752591" transform="matrix(0.8244766239862129,-0.5658960120908231,0.5658960120908231,0.8244766239862129,141.06627785324812,115.49325057555507)" fill="none" stroke="#00a19d"></use><use xlink:href="#bbburst-shape-6" width="10.643109130920319" opacity="0.8141579205848011" transform="matrix(0.991612516939454,0.1292463394027122,-0.1292463394027122,0.991612516939454,373.9681679387451,44.4321224874422)" fill="#2c2891"></use><use xlink:href="#bbburst-shape-6" width="16.349365798178727" opacity="0.719668464782518" transform="matrix(0.9847186118154754,0.17415296593570598,-0.17415296593570598,0.9847186118154754,349.38523099943285,-52.920903748372666)" fill="#ffbd9b"></use><use xlink:href="#bbburst-shape-1" width="6.6164011605026065" opacity="0.9424805518072635" transform="matrix(0.9927222056882149,0.1204268339429608,-0.1204268339429608,0.9927222056882149,470.4013069579198,-1.828112241630322)" fill="#2c2891"></use><use xlink:href="#bbburst-shape-13" width="35.21127939442557" opacity="0.2445935877538481" transform="matrix(0.8131616417980692,0.5820379234279057,-0.5820379234279057,0.8131616417980692,325.81010271688643,237.36854252374576)" fill="none" stroke="#ffbd9b"></use><use xlink:href="#bbburst-shape-8" width="13.038383694854737" opacity="0.755545937986007" transform="matrix(0.879356891086863,0.47616326832090583,-0.47616326832090583,0.879356891086863,540.7612693165742,145.98693258863068)" fill="none" stroke="#2c2891"></use><use xlink:href="#bbburst-shape-8" width="10.832735719004237" opacity="0.8561582775510093" transform="matrix(0.9917285026891425,0.1283533285659221,-0.1283533285659221,0.9917285026891425,412.4617190429297,-52.76732623293458)" fill="none" stroke="#00a19d"></use><use xlink:href="#bbburst-shape-8" width="7.3708086855573836" opacity="0.9650371624756534" transform="matrix(0.9229367463645952,-0.3849516361959446,0.3849516361959446,0.9229367463645952,239.77216581788517,47.71777269093104)" fill="none" stroke="#00a19d"></use><use xlink:href="#bbburst-shape-3" width="12.347293181671319" opacity="0.7669565426617008" transform="matrix(0.9164754543576237,-0.4000909166176948,0.4000909166176948,0.9164754543576237,286.53508362957774,-55.01442250303597)" fill="#ffa6d5"></use><use xlink:href="#bbburst-shape-6" width="14.038852809334992" opacity="0.7052209936115241" transform="matrix(0.8163844044502839,-0.5775088780013301,0.5775088780013301,0.8163844044502839,178.99169834539967,209.2152691070773)" fill="#2c2891"></use><use xlink:href="#bbburst-shape-11" width="33.4004773266878" opacity="0.3103746262068904" transform="matrix(0.9719640005573809,0.23512971233021934,-0.23512971233021934,0.9719640005573809,757.1223347272249,-128.60108076603387)" fill="none" stroke="#2c2891"></use><use xlink:href="#bbburst-shape-12" width="50.450686782180426" opacity="-0.09249684417986459" transform="matrix(0.8640411601334209,-0.5034211691966203,0.5034211691966203,0.8640411601334209,-170.71387020532399,-280.7535383948533)" fill="none" stroke="#ffbd9b"></use><use xlink:href="#bbburst-shape-9" width="24.389523854981977" opacity="0.6238038956119017" transform="matrix(0.995770542444894,-0.09187506081087181,0.09187506081087181,0.995770542444894,247.63687044272206,-131.35007969245834)" fill="none" stroke="#ffbd9b"></use><use xlink:href="#bbburst-shape-7" width="21.1333413695305" opacity="0.6022853300767101" transform="matrix(0.9580401657370716,-0.28663398408856594,0.28663398408856594,0.9580401657370716,274.4255752568276,198.7978673797678)" fill="#2c2891"></use><use xlink:href="#bbburst-shape-7" width="12.399997241310652" opacity="0.6873332688732707" transform="matrix(0.9796692010880856,-0.20061968108695627,0.20061968108695627,0.9796692010880856,190.93592925739267,78.24126844750776)" fill="#2c2891"></use><use xlink:href="#bbburst-shape-9" width="20.340028484862533" opacity="0.2972101793518984" transform="matrix(0.8017828757447659,0.5976154450501202,-0.5976154450501202,0.8017828757447659,945.6540427197447,104.6261639236721)" fill="none" stroke="#00a19d"></use><use xlink:href="#bbburst-shape-11" width="5.838111886318869" opacity="0.927259197068161" transform="matrix(0.9140212140787721,-0.40566639029375784,0.40566639029375784,0.9140212140787721,229.59410246734242,67.78493597021662)" fill="none" stroke="#ffbd9b"></use><use xlink:href="#bbburst-shape-6" width="35.41643194581774" opacity="0.18519828229793656" transform="matrix(0.9880505180713506,0.1541303790267699,-0.1541303790267699,0.9880505180713506,78.64305650618257,31.047031531339655)" fill="#2c2891"></use><use xlink:href="#bbburst-shape-14" width="26.19098093518677" opacity="0.10871554369606684" transform="matrix(0.997964867779511,0.06376615621019605,-0.06376615621019605,0.997964867779511,244.93260836830373,364.4404344313225)" fill="none" stroke="#00a19d"></use><use xlink:href="#bbburst-shape-2" width="31.899174977216518" opacity="0.41100164071055934" transform="matrix(0.7174685953224874,0.6965908517386492,-0.6965908517386492,0.7174685953224874,409.57515732595766,39.5444622548016)" fill="#ff5c58"></use><use xlink:href="#bbburst-shape-14" width="11.91673557441217" opacity="0.8200050495031694" transform="matrix(0.7864954619163019,-0.61759605599863,0.61759605599863,0.7864954619163019,210.0184171567352,36.657180453354385)" fill="none" stroke="#ffa6d5"></use><use xlink:href="#bbburst-shape-13" width="12.658480766962152" opacity="0.7927133088296738" transform="matrix(0.7347561578115083,0.6783313265345114,-0.6783313265345114,0.7347561578115083,589.1557749544595,49.93276417001482)" fill="none" stroke="#ffbd9b"></use><use xlink:href="#bbburst-shape-13" width="6.607105477346828" opacity="0.9669837945285572" transform="matrix(0.9826495775892304,-0.18547185140529263,0.18547185140529263,0.9826495775892304,309.5512972554189,0.38475490378380073)" fill="none" stroke="#2c2891"></use><use xlink:href="#bbburst-shape-8" width="22.267047058949128" opacity="0.47380832109402127" transform="matrix(0.8779174678065675,-0.4788119878617331,0.4788119878617331,0.8779174678065675,-23.738460928715483,135.33317618593645)" fill="none" stroke="#00a19d"></use><use xlink:href="#bbburst-shape-11" width="23.60557781394658" opacity="0.5005201129242367" transform="matrix(0.9630058849828983,0.2694803619715262,-0.2694803619715262,0.9630058849828983,345.6974174002976,-155.33699706034412)" fill="none" stroke="#2c2891"></use><use xlink:href="#bbburst-shape-9" width="22.501903430113394" opacity="0.6272016631967006" transform="matrix(0.9531243774095214,-0.30257878509193653,0.30257878509193653,0.9531243774095214,381.4806149457957,145.74539583321678)" fill="none" stroke="#ff5c58"></use><use xlink:href="#bbburst-shape-2" width="30.915561539561388" opacity="0.5088395659147505" transform="matrix(0.9879939644639966,-0.1544924793726704,0.1544924793726704,0.9879939644639966,528.5242221838731,-73.9306502841253)" fill="#00a19d"></use><use xlink:href="#bbburst-shape-4" width="29.522165724971188" opacity="0.5105721377266356" transform="matrix(0.9599935057028747,0.28002226520101,-0.28002226520101,0.9599935057028747,633.5074699326324,-161.59464076353208)" fill="#ffa6d5"></use><use xlink:href="#bbburst-shape-3" width="37.35310563936066" opacity="0.32496089507745884" transform="matrix(0.7251121763709929,-0.6886307658524429,0.6886307658524429,0.7251121763709929,-181.63170638216744,204.7616461180702)" fill="#00a19d"></use><use xlink:href="#bbburst-shape-5" width="29.81083468932918" opacity="0.18788747575581966" transform="matrix(0.9983823826340499,-0.0568561170495973,0.0568561170495973,0.9983823826340499,358.4486189071772,-363.93501917831037)" fill="#00a19d"></use><use xlink:href="#bbburst-shape-14" width="21.207224915891246" opacity="0.6698818457702914" transform="matrix(0.9850946646037885,0.1720130860404216,-0.1720130860404216,0.9850946646037885,593.7966786009914,-56.85432829793751)" fill="none" stroke="#ffa6d5"></use><use xlink:href="#bbburst-shape-6" width="30.792519838742628" opacity="0.06242496105534934" transform="matrix(0.916931422854952,-0.39904481675770864,0.39904481675770864,0.916931422854952,593.197819561518,-168.8764931449903)" fill="#ff5c58"></use><use xlink:href="#bbburst-shape-14" width="21.414545048037372" opacity="0.5339962302418524" transform="matrix(0.967730082630812,0.2519890616105427,-0.2519890616105427,0.967730082630812,280.809652985181,16.198892434802644)" fill="none" stroke="#2c2891"></use><use xlink:href="#bbburst-shape-12" width="12.332126137937758" opacity="0.8488766592532956" transform="matrix(0.8352591188077627,0.5498565307864223,-0.5498565307864223,0.8352591188077627,648.788296333483,3.5817150410142062)" fill="none" stroke="#2c2891"></use><use xlink:href="#bbburst-shape-10" width="9.31217011056244" opacity="0.9105437882237862" transform="matrix(0.979176630519602,-0.2030101629088523,0.2030101629088523,0.979176630519602,349.9517878143365,27.846839997701636)" fill="none" stroke="#00a19d"></use><use xlink:href="#bbburst-shape-8" width="33.8160934254304" opacity="0.3102071244129062" transform="matrix(0.8153977634046394,-0.5789011033282901,0.5789011033282901,0.8153977634046394,444.86718111391957,193.75606667050312)" fill="none" stroke="#2c2891"></use><use xlink:href="#bbburst-shape-9" width="9.007273595987009" opacity="0.8058569313096899" transform="matrix(0.874878818478138,0.48434187613533614,-0.48434187613533614,0.874878818478138,562.4433074442956,-35.148114806091144)" fill="none" stroke="#00a19d"></use><use xlink:href="#bbburst-shape-10" width="10.411173550403927" opacity="0.894019684215531" transform="matrix(0.8710427752157578,-0.49120716988296376,0.49120716988296376,0.8710427752157578,237.75467177375648,26.3696197641126)" fill="none" stroke="#00a19d"></use><use xlink:href="#bbburst-shape-10" width="25.222441259123283" opacity="0.5399120100065427" transform="matrix(0.995649052274674,-0.09318242701573867,0.09318242701573867,0.995649052274674,448.99804253239313,184.8455913704022)" fill="none" stroke="#2c2891"></use><use xlink:href="#bbburst-shape-12" width="13.018773551437985" opacity="0.7606604566044297" transform="matrix(0.7369225992480296,-0.6759771318007199,0.6759771318007199,0.7369225992480296,24.227111695230008,148.15904388702808)" fill="none" stroke="#00a19d"></use><use xlink:href="#bbburst-shape-6" width="8.48549004346705" opacity="0.8619168383172771" transform="matrix(0.8418501741277563,0.5397112971960716,-0.5397112971960716,0.8418501741277563,555.726156380488,86.64155075929898)" fill="#ffa6d5"></use><use xlink:href="#bbburst-shape-10" width="5.448556126200327" opacity="0.9583513253226341" transform="matrix(0.8389431519899649,-0.5442190622618273,0.5442190622618273,0.8389431519899649,163.10900092512284,73.9703941223255)" fill="none" stroke="#ffa6d5"></use><use xlink:href="#bbburst-shape-10" width="35.765220828259444" opacity="0.030171394037264543" transform="matrix(0.9982239657498136,0.059572763933822374,-0.059572763933822374,0.9982239657498136,147.32000429024762,351.1572993908946)" fill="none" stroke="#00a19d"></use><use xlink:href="#bbburst-shape-9" width="33.038614766167996" opacity="0.04396058752383436" transform="matrix(0.9949023880659666,-0.1008426408848794,0.1008426408848794,0.9949023880659666,-23.36415465429365,228.681150571516)" fill="none" stroke="#2c2891"></use><use xlink:href="#bbburst-shape-9" width="31.508852620006138" opacity="0.2826897272928621" transform="matrix(0.9470874511943446,-0.32097563737797924,0.32097563737797924,0.9470874511943446,-40.177543334947885,-100.88058387004497)" fill="none" stroke="#ffa6d5"></use><use xlink:href="#bbburst-shape-10" width="11.148897586090298" opacity="0.7631586817361028" transform="matrix(0.9340403663904893,-0.35716745925842763,0.35716745925842763,0.9340403663904893,271.7160061422844,-76.3503093208547)" fill="none" stroke="#ff5c58"></use><use xlink:href="#bbburst-shape-4" width="32.0746971163055" opacity="0.4036634660071896" transform="matrix(0.9810740740973766,-0.1936327997369639,0.1936327997369639,0.9810740740973766,38.8010196854452,24.085245297354277)" fill="#ffa6d5"></use><use xlink:href="#bbburst-shape-7" width="6.387976508391672" opacity="0.9598863021007777" transform="matrix(0.9985395813278825,0.05402503606234052,-0.05402503606234052,0.9985395813278825,415.8525290633931,-17.462525258125368)" fill="#00a19d"></use><use xlink:href="#bbburst-shape-9" width="6.92370312864257" opacity="0.95275429221804" transform="matrix(0.7489475201958661,0.6626293171845499,-0.6626293171845499,0.7489475201958661,676.5584778804214,82.15199631548745)" fill="none" stroke="#ffbd9b"></use><use xlink:href="#bbburst-shape-1" width="15.020987002336897" opacity="0.690870306987041" transform="matrix(0.8708921418257732,-0.49147418783301056,0.49147418783301056,0.8708921418257732,170.3506706630965,191.9066352410352)" fill="#ffbd9b"></use><use xlink:href="#bbburst-shape-10" width="32.67647598759603" opacity="0.14961684594794789" transform="matrix(0.9443068529266077,-0.32906620536883774,0.32906620536883774,0.9443068529266077,-109.37351156677013,150.79311450232848)" fill="none" stroke="#2c2891"></use><use xlink:href="#bbburst-shape-11" width="27.223824051533082" opacity="0.4374221692323256" transform="matrix(0.9200052903282219,0.3919059399499886,-0.3919059399499886,0.9200052903282219,796.1439383087118,52.86090540162212)" fill="none" stroke="#ffa6d5"></use><use xlink:href="#bbburst-shape-2" width="24.312922181496475" opacity="0.18396947959422405" transform="matrix(0.9998155514868514,-0.019205806544976455,0.019205806544976455,0.9998155514868514,677.3900136491433,-215.32475712600106)" fill="#ffa6d5"></use><use xlink:href="#bbburst-shape-5" width="9.272166129813733" opacity="0.8822354924402046" transform="matrix(0.7861148229748611,0.618080484321583,-0.618080484321583,0.7861148229748611,631.9285778485535,134.3841670575727)" fill="#00a19d"></use><use xlink:href="#bbburst-shape-6" width="15.735733719361036" opacity="0.6786539034165586" transform="matrix(0.8178770329308923,0.575393047406866,-0.575393047406866,0.8178770329308923,660.1029047914178,-71.63227619852506)" fill="#ffa6d5"></use><use xlink:href="#bbburst-shape-4" width="32.03834758512698" opacity="0.37469412975649097" transform="matrix(0.8417794817277697,0.5398215484232984,-0.5398215484232984,0.8417794817277697,716.51469400931,311.88746065635075)" fill="#ffa6d5"></use><use xlink:href="#bbburst-shape-2" width="21.012203455554445" opacity="0.5944616623050133" transform="matrix(0.775380345786451,0.6314945125399616,-0.6314945125399616,0.775380345786451,473.96634655972804,148.34054894239114)" fill="#00a19d"></use><use xlink:href="#bbburst-shape-11" width="14.293998103967269" opacity="0.7577036231372443" transform="matrix(0.8224053589118114,0.5689019472924438,-0.5689019472924438,0.8224053589118114,535.0595200441168,132.89972364331243)" fill="none" stroke="#00a19d"></use><use xlink:href="#bbburst-shape-6" width="8.262009691257532" opacity="0.8864374408415295" transform="matrix(0.9604985205380175,0.2782850913079598,-0.2782850913079598,0.9604985205380175,456.74880269205084,21.82303130907303)" fill="#2c2891"></use><use xlink:href="#bbburst-shape-10" width="28.912717881271977" opacity="0.4680430662855749" transform="matrix(0.9700153306113608,0.2430437375842717,-0.2430437375842717,0.9700153306113608,705.8541425846566,96.3769584472243)" fill="none" stroke="#2c2891"></use><use xlink:href="#bbburst-shape-5" width="26.790137494900915" opacity="0.1467407133714741" transform="matrix(0.938896210419779,-0.3442003864892922,0.3442003864892922,0.938896210419779,-118.4203133674633,-79.97072781378631)" fill="#00a19d"></use><use xlink:href="#bbburst-shape-10" width="12.736437568505734" opacity="0.7395757893534428" transform="matrix(0.8319166098427961,-0.5549006706318428,0.5549006706318428,0.8319166098427961,289.51990991061746,60.93818989079239)" fill="none" stroke="#2c2891"></use><use xlink:href="#bbburst-shape-13" width="19.160920996038243" opacity="0.6906557663398021" transform="matrix(0.9165486224792716,0.39992327092999946,-0.39992327092999946,0.9165486224792716,415.3764784334829,60.09641708870129)" fill="none" stroke="#ffa6d5"></use><use xlink:href="#bbburst-shape-8" width="9.36204055333898" opacity="0.9013186340218549" transform="matrix(0.8590087361457815,0.5119609274400021,-0.5119609274400021,0.8590087361457815,645.0990219061293,51.49117560649785)" fill="none" stroke="#2c2891"></use><use xlink:href="#bbburst-shape-6" width="19.016428577613713" opacity="0.6636841244115835" transform="matrix(0.7113042053512233,0.702884291650955,-0.702884291650955,0.7113042053512233,601.7152916297481,241.54612968795027)" fill="#00a19d"></use><use xlink:href="#bbburst-shape-14" width="12.19242089458914" opacity="0.7041206053014442" transform="matrix(0.8818987506862053,0.47143885450619183,-0.47143885450619183,0.8818987506862053,494.7584831014812,143.91686496842453)" fill="none" stroke="#ff5c58"></use><use xlink:href="#bbburst-shape-12" width="32.11394645856681" opacity="0.04694936100867142" transform="matrix(0.9524375481509861,-0.30473384595764524,0.30473384595764524,0.9524375481509861,34.49366915822105,-339.19403498890233)" fill="none" stroke="#2c2891"></use><use xlink:href="#bbburst-shape-14" width="7.357584316658229" opacity="0.9609928013352373" transform="matrix(0.8224894994590247,0.568780294384082,-0.568780294384082,0.8224894994590247,639.4828720648383,78.03318297272267)" fill="none" stroke="#2c2891"></use><use xlink:href="#bbburst-shape-14" width="28.977374700538707" opacity="0.2411866606601425" transform="matrix(0.9648304421388336,0.2628730072148583,-0.2628730072148583,0.9648304421388336,654.0563000085419,-289.8093225930434)" fill="none" stroke="#00a19d"></use><use xlink:href="#bbburst-shape-10" width="6.79951762482481" opacity="0.913137543947449" transform="matrix(0.9998236109617409,0.018781559131910742,-0.018781559131910742,0.9998236109617409,423.8906049453671,-33.70894108257107)" fill="none" stroke="#ffbd9b"></use><use xlink:href="#bbburst-shape-14" width="29.03942665901185" opacity="0.42052238092677774" transform="matrix(0.9981632218700182,-0.06058203121441875,0.06058203121441875,0.9981632218700182,242.38187174246508,-230.42924145575597)" fill="none" stroke="#2c2891"></use><use xlink:href="#bbburst-shape-14" width="13.545365932786105" opacity="0.7804696238252783" transform="matrix(0.756598255384823,-0.6538800195361855,0.6538800195361855,0.756598255384823,76.16886212331917,21.235405937223845)" fill="none" stroke="#ffa6d5"></use><use xlink:href="#bbburst-shape-9" width="23.91055794510021" opacity="0.5554724495927632" transform="matrix(0.7518835660428091,-0.6592959146807665,0.6592959146807665,0.7518835660428091,12.93481052768459,271.2071563054773)" fill="none" stroke="#00a19d"></use><use xlink:href="#bbburst-shape-9" width="15.636364299641187" opacity="0.7254467047083775" transform="matrix(0.9412844406031671,-0.3376145759270219,0.3376145759270219,0.9412844406031671,349.2829238358089,-56.74514149237103)" fill="none" stroke="#ffbd9b"></use><use xlink:href="#bbburst-shape-6" width="38.10854540634038" opacity="0.022646927591500887" transform="matrix(0.9768759760911035,0.2138067523163236,-0.2138067523163236,0.9768759760911035,827.2172204117684,257.3859674770459)" fill="#00a19d"></use><use xlink:href="#bbburst-shape-7" width="13.249516896395601" opacity="0.7798956365805823" transform="matrix(0.7466039561572714,-0.6652687672289382,0.6652687672289382,0.7466039561572714,222.87337584300093,137.11207079224783)" fill="#2c2891"></use><use xlink:href="#bbburst-shape-14" width="29.032962944259282" opacity="0.25986706698191786" transform="matrix(0.8862853203189905,-0.4631396452335562,0.4631396452335562,0.8862853203189905,-129.47420831338056,18.743600609044904)" fill="none" stroke="#ffa6d5"></use><use xlink:href="#bbburst-shape-12" width="41.079920481008" opacity="0.21543076578406306" transform="matrix(0.8894401643938774,-0.45705163161615814,0.45705163161615814,0.8894401643938774,488.1345845565683,255.97641621280445)" fill="none" stroke="#ffa6d5"></use><use xlink:href="#bbburst-shape-13" width="22.781666896736773" opacity="0.17422765328309398" transform="matrix(0.9976555368119708,0.0684355891946453,-0.0684355891946453,0.9976555368119708,787.1446037235185,18.703234421042453)" fill="none" stroke="#ffa6d5"></use><use xlink:href="#bbburst-shape-10" width="31.267489450117452" opacity="0.2888205141957988" transform="matrix(0.9825651829288033,0.18591842645657045,-0.18591842645657045,0.9825651829288033,652.3635615552346,259.08226627242567)" fill="none" stroke="#2c2891"></use><use xlink:href="#bbburst-shape-6" width="33.54744209379744" opacity="0.039075514219247154" transform="matrix(0.8947801070205063,-0.44650706610351787,0.44650706610351787,0.8947801070205063,439.73556261216277,-314.4726636233186)" fill="#2c2891"></use><use xlink:href="#bbburst-shape-1" width="19.395303691659702" opacity="0.5995141828776371" transform="matrix(0.8646186819198739,0.502428636599408,-0.502428636599408,0.8646186819198739,735.4399688099429,-60.55315131481245)" fill="#00a19d"></use><use xlink:href="#bbburst-shape-3" width="31.553241707717987" opacity="0.3270023691866172" transform="matrix(0.7137785506800429,0.7003714590052177,-0.7003714590052177,0.7137785506800429,876.2797168687578,-117.25874999301686)" fill="#ffbd9b"></use><use xlink:href="#bbburst-shape-7" width="19.729244571912684" opacity="0.6408089699461513" transform="matrix(0.9191527151567922,-0.39390136610564924,0.39390136610564924,0.9191527151567922,393.4308079922787,14.204401059351426)" fill="#ff5c58"></use><use xlink:href="#bbburst-shape-3" width="5.878236381779713" opacity="0.935691652189967" transform="matrix(0.9979913832469243,-0.06334981424511626,0.06334981424511626,0.9979913832469243,344.7965878662702,-9.658713124252188)" fill="#ff5c58"></use><use xlink:href="#bbburst-shape-2" width="17.904724795117257" opacity="0.5145222965158588" transform="matrix(0.9713946978467132,-0.2374707160794627,0.2374707160794627,0.9713946978467132,345.12261237174334,226.52049871735602)" fill="#2c2891"></use><use xlink:href="#bbburst-shape-8" width="8.492096340259588" opacity="0.8274090373366266" transform="matrix(0.7522397398639962,0.6588895004242725,-0.6588895004242725,0.7522397398639962,646.0916240579263,172.65012694288953)" fill="none" stroke="#ffbd9b"></use><use xlink:href="#bbburst-shape-4" width="32.92704425645276" opacity="0.36163369070231066" transform="matrix(0.9975720545648281,0.06964191231799774,-0.06964191231799774,0.9975720545648281,694.1367855145648,-51.12189940661199)" fill="#ffa6d5"></use><use xlink:href="#bbburst-shape-3" width="6.983798863733862" opacity="0.8674872794550987" transform="matrix(0.8343433475479602,0.5512451164431877,-0.5512451164431877,0.8343433475479602,628.2723196750801,122.98413559002239)" fill="#00a19d"></use><use xlink:href="#bbburst-shape-11" width="22.84551662345964" opacity="0.4591788113521499" transform="matrix(0.9941210681617132,0.10827419746649929,-0.10827419746649929,0.9941210681617132,398.90733970495995,-240.2889326884721)" fill="none" stroke="#ffa6d5"></use><use xlink:href="#bbburst-shape-13" width="7.945893113633167" opacity="0.84723351966414" transform="matrix(0.9245313905318351,-0.3811059011892514,0.3811059011892514,0.9245313905318351,175.34803883495775,26.352418661359593)" fill="none" stroke="#00a19d"></use><use xlink:href="#bbburst-shape-7" width="30.842789909846896" opacity="0.17637001639325156" transform="matrix(0.8777300776345156,0.47915541405237955,-0.47915541405237955,0.8777300776345156,937.4451521701661,-49.05804672297205)" fill="#00a19d"></use><use xlink:href="#bbburst-shape-8" width="33.85017384087971" opacity="0.3113811808799819" transform="matrix(0.851734809681473,0.5239731042495073,-0.5239731042495073,0.851734809681473,643.8487481625641,-255.59390237137143)" fill="none" stroke="#2c2891"></use><use xlink:href="#bbburst-shape-7" width="7.8694341460139245" opacity="0.9361623537392817" transform="matrix(0.7316438556382581,0.6816870752088409,-0.6816870752088409,0.7316438556382581,684.1953220169264,129.4856861620329)" fill="#ffa6d5"></use><use xlink:href="#bbburst-shape-14" width="11.106371384340623" opacity="0.8260213663596379" transform="matrix(0.7826002923332978,0.6225245235650054,-0.6225245235650054,0.7826002923332978,567.8521787990434,98.70613982243907)" fill="none" stroke="#00a19d"></use><use xlink:href="#bbburst-shape-14" width="20.737440966972862" opacity="0.6225818032790642" transform="matrix(0.9254166526987044,0.37895120913902014,-0.37895120913902014,0.9254166526987044,412.31377030557053,135.62556655446417)" fill="none" stroke="#00a19d"></use><use xlink:href="#bbburst-shape-8" width="13.576470166826896" opacity="0.7729660318950573" transform="matrix(0.9918369334335605,-0.12751273456839876,0.12751273456839876,0.9918369334335605,240.50180778622752,13.218984452242069)" fill="none" stroke="#00a19d"></use><use xlink:href="#bbburst-shape-14" width="16.02205441964497" opacity="0.6934858624106139" transform="matrix(0.9828930845938337,-0.18417704595746642,0.18417704595746642,0.9828930845938337,453.39327020769133,36.93753379905337)" fill="none" stroke="#ffa6d5"></use><use xlink:href="#bbburst-shape-8" width="31.57879229086642" opacity="0.43588253033235846" transform="matrix(0.9840155291982075,-0.17808267264608243,0.17808267264608243,0.9840155291982075,95.92526448163765,-122.01925351247962)" fill="none" stroke="#ffa6d5"></use><use xlink:href="#bbburst-shape-10" width="26.28460533016543" opacity="0.17532159098279398" transform="matrix(0.9993621959210985,0.03570996168801902,-0.03570996168801902,0.9993621959210985,333.08630917490325,364.5959760238935)" fill="none" stroke="#ffbd9b"></use><use xlink:href="#bbburst-shape-11" width="13.276325945343682" opacity="0.6817596329809763" transform="matrix(0.7572666278033893,0.653105852381743,-0.653105852381743,0.7572666278033893,723.699221449625,218.999233897796)" fill="none" stroke="#2c2891"></use><use xlink:href="#bbburst-shape-11" width="14.05674195205605" opacity="0.7732201524421494" transform="matrix(0.7754059106174633,0.6314631214722698,-0.6314631214722698,0.7754059106174633,740.890765050387,44.69099367372286)" fill="none" stroke="#ffa6d5"></use><use xlink:href="#bbburst-shape-14" width="9.092320810149271" opacity="0.845660968099511" transform="matrix(0.8054767858834164,0.5926273258996085,-0.5926273258996085,0.8054767858834164,690.3244363088497,114.88927668852847)" fill="none" stroke="#ffbd9b"></use><use xlink:href="#bbburst-shape-14" width="22.383112297749328" opacity="0.4054968674708235" transform="matrix(0.976311952407175,-0.21636767685329034,0.21636767685329034,0.976311952407175,419.7583679757927,-228.54954256321312)" fill="none" stroke="#00a19d"></use><use xlink:href="#bbburst-shape-7" width="5.969494812555897" opacity="0.9953380179497626" transform="matrix(0.9116196512826569,-0.41103480557647076,0.41103480557647076,0.9116196512826569,234.76440527657383,35.73962417830319)" fill="#ff5c58"></use><use xlink:href="#bbburst-shape-3" width="5.944447937727042" opacity="0.9277653032858022" transform="matrix(0.9142226056351346,-0.4052123237831065,0.4052123237831065,0.9142226056351346,214.83225930357037,60.876146767026)" fill="#2c2891"></use><use xlink:href="#bbburst-shape-8" width="8.736109090345636" opacity="0.8516695346955295" transform="matrix(0.8773399232493885,0.4798694187721877,-0.4798694187721877,0.8773399232493885,526.5672500003036,21.137656605182997)" fill="none" stroke="#ff5c58"></use><use xlink:href="#bbburst-shape-9" width="25.02730049330251" opacity="0.3803495061983255" transform="matrix(0.9622214320022863,0.2722680954417348,-0.2722680954417348,0.9622214320022863,542.7603009544054,286.58969197985647)" fill="none" stroke="#ffa6d5"></use><use xlink:href="#bbburst-shape-14" width="24.59533584677132" opacity="0.586577156143718" transform="matrix(0.918030848004407,0.3965089685143444,-0.3965089685143444,0.918030848004407,492.8629469561904,205.83950425760304)" fill="none" stroke="#ffa6d5"></use><use xlink:href="#bbburst-shape-12" width="11.056099743819942" opacity="0.7761641572045239" transform="matrix(0.707523351096899,-0.7066899657223202,0.7066899657223202,0.707523351096899,192.8854881364805,182.75064107038298)" fill="none" stroke="#2c2891"></use><use xlink:href="#bbburst-shape-14" width="33.87636742707567" opacity="0.3186178239163372" transform="matrix(0.9800616966379192,-0.1986934090079571,0.1986934090079571,0.9800616966379192,242.88752499480495,-289.09841849600224)" fill="none" stroke="#ffa6d5"></use><use xlink:href="#bbburst-shape-11" width="7.988096746313714" opacity="0.921448853903708" transform="matrix(0.9693062709056036,0.24585636697688468,-0.24585636697688468,0.9693062709056036,493.2589529583693,-24.130611163277877)" fill="none" stroke="#ffa6d5"></use><use xlink:href="#bbburst-shape-3" width="34.136856557009864" opacity="0.04216728143910009" transform="matrix(0.7636059376845215,0.6456825628224312,-0.6456825628224312,0.7636059376845215,281.648126168285,-148.1849462082653)" fill="#ff5c58"></use><use xlink:href="#bbburst-shape-9" width="12.262991037106517" opacity="0.7915929389626606" transform="matrix(0.999804270443867,-0.019784357513115778,0.019784357513115778,0.999804270443867,294.95364109715734,-22.558135947544486)" fill="none" stroke="#2c2891"></use><use xlink:href="#bbburst-shape-4" width="7.295490547076754" opacity="0.8448406338220072" transform="matrix(0.7561794040672615,0.6543643548241922,-0.6543643548241922,0.7561794040672615,606.9096352134087,48.63358499036707)" fill="#00a19d"></use><use xlink:href="#bbburst-shape-14" width="25.832584028741923" opacity="0.2636113052885396" transform="matrix(0.9918273817045911,0.1275870091389225,-0.1275870091389225,0.9918273817045911,284.60110369911786,295.2722874822309)" fill="none" stroke="#00a19d"></use><use xlink:href="#bbburst-shape-7" width="14.904275834217806" opacity="0.7657129931504786" transform="matrix(0.9769572781470801,0.21343494717465744,-0.21343494717465744,0.9769572781470801,510.92434971779903,107.78061251149512)" fill="#ffa6d5"></use><use xlink:href="#bbburst-shape-11" width="30.778945480171824" opacity="0.1268979248967339" transform="matrix(0.8482921277631599,0.5295285317856355,-0.5295285317856355,0.8482921277631599,866.1924030401289,-235.8261391742891)" fill="none" stroke="#ff5c58"></use><use xlink:href="#bbburst-shape-8" width="23.90249275604644" opacity="0.38858389432042795" transform="matrix(0.8852405047891706,-0.4651335815447154,0.4651335815447154,0.8852405047891706,-21.420923458839553,210.1163363254251)" fill="none" stroke="#2c2891"></use><use xlink:href="#bbburst-shape-14" width="25.33823341439484" opacity="0.28417767886230116" transform="matrix(0.7181895309759952,0.6958475390460759,-0.6958475390460759,0.7181895309759952,670.4516939231689,426.05069264749255)" fill="none" stroke="#00a19d"></use><use xlink:href="#bbburst-shape-8" width="18.17557554780976" opacity="0.6513977473531423" transform="matrix(0.9015422546505937,-0.43269107118072603,0.43269107118072603,0.9015422546505937,306.82514317626726,-86.4839793860092)" fill="none" stroke="#2c2891"></use><use xlink:href="#bbburst-shape-7" width="21.16903531424264" opacity="0.5962666569407482" transform="matrix(0.7522063856401363,0.6589275782680541,-0.6589275782680541,0.7522063856401363,504.5263760899868,-8.89453225894573)" fill="#ffa6d5"></use><use xlink:href="#bbburst-shape-11" width="32.00892473976944" opacity="0.1514260085013076" transform="matrix(0.7404943305574884,-0.6720626060213566,0.6720626060213566,0.7404943305574884,230.94327615183693,-250.8428891007618)" fill="none" stroke="#ff5c58"></use><use xlink:href="#bbburst-shape-2" width="9.28787050189657" opacity="0.887018870220075" transform="matrix(0.8834553295194283,0.46851540075403963,-0.46851540075403963,0.8834553295194283,613.9276480932417,85.02805890904938)" fill="#00a19d"></use><use xlink:href="#bbburst-shape-11" width="15.08960993270073" opacity="0.6339942686165783" transform="matrix(0.8697759247600643,0.49344689755613536,-0.49344689755613536,0.8697759247600643,426.2220612054107,50.203135191692866)" fill="none" stroke="#ffa6d5"></use><use xlink:href="#bbburst-shape-8" width="8.241744679158721" opacity="0.8970731556761801" transform="matrix(0.999675818417533,-0.025460912615921708,0.025460912615921708,0.999675818417533,347.3888966192846,26.269762391413337)" fill="none" stroke="#2c2891"></use><use xlink:href="#bbburst-shape-11" width="11.508903463488664" opacity="0.8581433160377752" transform="matrix(0.7486093407689582,0.6630113535328529,-0.6630113535328529,0.7486093407689582,723.1414399228347,111.21753813244374)" fill="none" stroke="#00a19d"></use><use xlink:href="#bbburst-shape-8" width="36.989990554580984" opacity="0.12691393225898207" transform="matrix(0.9964550474215917,-0.0841269188074384,0.0841269188074384,0.9964550474215917,78.48127244268058,-282.97090540553666)" fill="none" stroke="#ffa6d5"></use><use xlink:href="#bbburst-shape-13" width="14.405081044420264" opacity="0.7463966314742239" transform="matrix(0.9943558770266379,-0.10609613481454423,0.10609613481454423,0.9943558770266379,420.4539853442724,93.11126865860126)" fill="none" stroke="#2c2891"></use><use xlink:href="#bbburst-shape-4" width="11.484338324656992" opacity="0.7861451825081007" transform="matrix(0.8379657936999347,-0.5457227579905738,0.5457227579905738,0.8379657936999347,116.91439515861151,143.2040182761184)" fill="#ff5c58"></use><use xlink:href="#bbburst-shape-2" width="25.979033826412707" opacity="0.5631122656647998" transform="matrix(0.9914834088728526,-0.1302330600495427,0.1302330600495427,0.9914834088728526,403.67430038975124,-179.11483639194893)" fill="#2c2891"></use><use xlink:href="#bbburst-shape-8" width="8.396228182413683" opacity="0.8318545861338521" transform="matrix(0.9243385034097253,-0.3815734937260045,0.3815734937260045,0.9243385034097253,209.09655345733773,99.26337661299647)" fill="none" stroke="#ff5c58"></use><use xlink:href="#bbburst-shape-4" width="24.480125898574265" opacity="0.38451077997519445" transform="matrix(0.9977379689735546,0.06722310070597964,-0.06722310070597964,0.9977379689735546,637.0872888093172,165.16594403744097)" fill="#00a19d"></use><use xlink:href="#bbburst-shape-9" width="6.516345711638843" opacity="0.9222367928971453" transform="matrix(0.7523983762988692,0.6587083446737451,-0.6587083446737451,0.7523983762988692,643.295748529069,66.71273611255543)" fill="none" stroke="#2c2891"></use><use xlink:href="#bbburst-shape-2" width="10.701130484091873" opacity="0.7698432779781603" transform="matrix(0.9658190194664414,0.25921732510941764,-0.25921732510941764,0.9658190194664414,490.5644723996532,115.55534845570571)" fill="#00a19d"></use><use xlink:href="#bbburst-shape-9" width="15.395346289896668" opacity="0.8282364339036374" transform="matrix(0.9312115290390691,0.3644792013060812,-0.3644792013060812,0.9312115290390691,579.4917928322434,90.24221220557354)" fill="none" stroke="#ffbd9b"></use><use xlink:href="#bbburst-shape-4" width="12.97495791150941" opacity="0.7115271281406883" transform="matrix(0.8022812522699078,-0.5969462222480586,0.5969462222480586,0.8022812522699078,62.71822342410209,-7.282463098818653)" fill="#2c2891"></use><use xlink:href="#bbburst-shape-13" width="21.8552789178498" opacity="0.6546102177349586" transform="matrix(0.916395476129214,-0.40027407026924844,0.40027407026924844,0.916395476129214,81.05407431182974,-7.005941144646329)" fill="none" stroke="#2c2891"></use><use xlink:href="#bbburst-shape-9" width="7.19803954626724" opacity="0.8982773703607011" transform="matrix(0.9688341154439639,-0.2477104292352505,0.2477104292352505,0.9688341154439639,253.11619791435686,1.786528413826602)" fill="none" stroke="#2c2891"></use><use xlink:href="#bbburst-shape-9" width="26.86278591804988" opacity="0.4549820143597889" transform="matrix(0.9939420910098897,0.10990504865058802,-0.10990504865058802,0.9939420910098897,471.38519173282083,-241.0815174958458)" fill="none" stroke="#ffa6d5"></use><use xlink:href="#bbburst-shape-7" width="38.474185811446375" opacity="-0.0859345081318732" transform="matrix(0.8976040520137214,0.44080263815969667,-0.44080263815969667,0.8976040520137214,909.6765023945864,-307.8577066098872)" fill="#2c2891"></use><use xlink:href="#bbburst-shape-14" width="25.60507682908264" opacity="0.5146311867720896" transform="matrix(0.8186794288805154,-0.5742508099496885,0.5742508099496885,0.8186794288805154,-10.287374365559998,216.88568545689424)" fill="none" stroke="#2c2891"></use><use xlink:href="#bbburst-shape-13" width="32.57060330951622" opacity="0.09957706511392439" transform="matrix(0.9140096875887777,-0.40569236003881703,0.40569236003881703,0.9140096875887777,-80.20209460682429,309.9747219194903)" fill="none" stroke="#ffa6d5"></use><use xlink:href="#bbburst-shape-11" width="32.05072247784634" opacity="0.2503485369023494" transform="matrix(0.8326998917412975,0.5537245617579478,-0.5537245617579478,0.8326998917412975,381.4859922719824,307.34651190941673)" fill="none" stroke="#ffa6d5"></use><use xlink:href="#bbburst-shape-10" width="18.250790600863745" opacity="0.5766410926279955" transform="matrix(0.9694652862104584,0.2452285848608886,-0.2452285848608886,0.9694652862104584,492.1349348462053,-180.51350634985866)" fill="none" stroke="#2c2891"></use><use xlink:href="#bbburst-shape-11" width="7.064689244690953" opacity="0.8967841585900704" transform="matrix(0.9573739668980693,0.28885132422382004,-0.28885132422382004,0.9573739668980693,477.01420013572914,-14.394285877669233)" fill="none" stroke="#ffbd9b"></use></svg>